# xmcd
#
# Track frame offsets: 
#        150
#        21218
#        41742
#        65912
#        85844
#        102759
#        126983
#        146700
#
# Disc length: 2255 seconds
#
# Revision: 0
# Processed by: cddbd v1.5.2PL0 Copyright (c) Steve Scherf et al.
# Submitted via: ExactAudioCopy v1.1
#
DISCID=7208cd08
DTITLE=Lew Kirton - Just Arrived
DYEAR=1980
DGENRE=Soul
TTITLE0=Island Girl
TTITLE1=Why Should I Get Jealous?
TTITLE2=Love, I Don't Want Your Love
TTITLE3=NYC
TTITLE4=Something Special
TTITLE5=Time To Get With It
TTITLE6=Love Secret Agent
TTITLE7=Let Me Up - Off My Knees
EXTD=
EXTT0=
EXTT1=
EXTT2=
EXTT3=
EXTT4=
EXTT5=
EXTT6=
EXTT7=
PLAYORDER=
